<?xml version="1.0" encoding="UTF-8"?>
<svg xmlns="http://www.w3.org/2000/svg" xmlns:xlink="http://www.w3.org/1999/xlink" width="36px" height="36px" viewBox="0 0 36 36" version="1.1">
<g id="surface1">
<path style=" stroke:none;fill-rule:nonzero;fill:rgb(0%,0%,0%);fill-opacity:1;" d="M 3.761719 0.078125 C 3.402344 0.28125 3.375 0.386719 3.375 1.597656 L 3.375 2.734375 L 1.933594 2.757812 L 0.492188 2.777344 L 0.300781 2.972656 L 0.105469 3.164062 L 0.0859375 4.796875 C 0.0703125 5.695312 0.0859375 6.503906 0.105469 6.59375 C 0.125 6.6875 0.230469 6.839844 0.332031 6.933594 C 0.511719 7.101562 0.527344 7.101562 1.941406 7.101562 L 3.375 7.101562 L 3.375 30.445312 L 2.9375 30.664062 C 1.292969 31.492188 0.265625 33.039062 0.0976562 34.953125 C 0.0546875 35.480469 0.0546875 35.492188 0.265625 35.726562 L 0.476562 35.964844 L 34.382812 35.964844 L 34.574219 35.769531 L 34.769531 35.578125 L 34.789062 32.289062 L 34.8125 29.003906 L 35.121094 29.023438 C 35.394531 29.054688 35.464844 29.023438 35.648438 28.84375 L 35.859375 28.632812 L 35.859375 26.480469 C 35.859375 25.304688 35.832031 24.257812 35.796875 24.167969 C 35.753906 24.0625 34.613281 23.183594 32.632812 21.71875 C 30.921875 20.46875 29.53125 19.425781 29.53125 19.40625 C 29.53125 19.386719 29.621094 19.328125 29.726562 19.28125 C 29.839844 19.230469 29.96875 19.109375 30.007812 19.011719 C 30.074219 18.886719 30.09375 17.507812 30.09375 14.027344 L 30.09375 9.210938 L 29.898438 8.992188 C 29.707031 8.78125 29.65625 8.769531 29.125 8.734375 L 28.546875 8.699219 L 28.546875 7.101562 L 31.203125 7.101562 C 33.609375 7.101562 33.871094 7.085938 34.003906 6.976562 C 34.292969 6.742188 34.3125 6.609375 34.3125 4.894531 L 34.3125 3.234375 L 34.109375 3.007812 L 33.90625 2.777344 L 20.828125 2.757812 L 7.75 2.742188 L 7.71875 1.582031 L 7.699219 0.421875 L 7.503906 0.230469 L 7.3125 0.0351562 L 5.605469 0.0195312 C 4.445312 0.0078125 3.859375 0.0273438 3.761719 0.078125 Z M 6.257812 2.074219 L 6.257812 2.742188 L 4.78125 2.742188 L 4.78125 1.40625 L 6.257812 1.40625 Z M 10.96875 4.921875 L 10.96875 5.695312 L 1.476562 5.695312 L 1.476562 4.148438 L 10.96875 4.148438 Z M 27.140625 4.921875 L 27.140625 5.695312 L 12.375 5.695312 L 12.375 4.972656 C 12.375 4.570312 12.394531 4.21875 12.425781 4.199219 C 12.445312 4.167969 15.769531 4.148438 19.808594 4.148438 L 27.140625 4.148438 Z M 32.90625 4.921875 L 32.90625 5.695312 L 28.546875 5.695312 L 28.546875 4.972656 C 28.546875 4.570312 28.566406 4.21875 28.597656 4.199219 C 28.617188 4.167969 29.601562 4.148438 30.777344 4.148438 L 32.90625 4.148438 Z M 10.96875 7.910156 L 10.96875 8.71875 L 10.546875 8.71875 C 10.316406 8.71875 10.011719 8.761719 9.878906 8.816406 C 9.402344 9.019531 9.414062 8.808594 9.4375 14.167969 L 9.457031 18.984375 L 9.652344 19.175781 L 9.84375 19.371094 L 25.242188 19.441406 L 22.273438 21.621094 C 20.636719 22.816406 19.214844 23.886719 19.109375 23.992188 L 18.914062 24.171875 L 18.914062 28.601562 L 19.082031 28.808594 L 19.25 29.003906 L 18.5 28.976562 C 18.089844 28.960938 17.535156 28.988281 17.277344 29.039062 L 16.796875 29.125 L 16.269531 28.617188 C 14.921875 27.335938 13.34375 26.710938 11.480469 26.710938 C 10.25 26.703125 9.105469 27 8.105469 27.578125 L 7.734375 27.78125 L 7.734375 7.101562 L 10.96875 7.101562 Z M 27.140625 7.910156 L 27.140625 8.71875 L 12.375 8.71875 L 12.375 7.101562 L 27.140625 7.101562 Z M 6.257812 20.882812 L 6.257812 34.59375 L 4.78125 34.59375 L 4.78125 7.171875 L 6.257812 7.171875 Z M 28.6875 14.0625 L 28.6875 18 L 10.828125 18 L 10.828125 10.125 L 28.6875 10.125 Z M 30.453125 25.789062 L 33.390625 27.949219 L 33.398438 31.269531 L 33.398438 34.59375 L 29.953125 34.59375 L 29.953125 32.21875 C 29.953125 29.609375 29.945312 29.582031 29.53125 29.375 C 29.3125 29.265625 29.054688 29.25 27.386719 29.25 C 25.71875 29.25 25.460938 29.265625 25.242188 29.375 C 24.828125 29.582031 24.820312 29.609375 24.820312 32.21875 L 24.820312 34.59375 L 24.046875 34.59375 L 24.046875 34.257812 C 24.046875 33.734375 23.800781 32.871094 23.457031 32.167969 C 23.089844 31.421875 22.507812 30.707031 21.847656 30.171875 L 21.367188 29.792969 L 21.390625 28.863281 L 21.410156 27.929688 L 24.363281 25.75 C 25.988281 24.546875 27.359375 23.582031 27.414062 23.597656 C 27.464844 23.609375 28.835938 24.601562 30.453125 25.789062 Z M 12.804688 28.273438 C 13.449219 28.433594 14.328125 28.84375 14.785156 29.1875 C 14.949219 29.3125 15.347656 29.691406 15.679688 30.039062 C 16.347656 30.734375 16.402344 30.753906 17.09375 30.535156 C 17.675781 30.355469 18.949219 30.367188 19.582031 30.566406 C 21.179688 31.070312 22.429688 32.546875 22.613281 34.164062 L 22.660156 34.59375 L 7.734375 34.59375 L 7.734375 33.609375 L 12.367188 33.609375 C 15.484375 33.609375 17.066406 33.582031 17.210938 33.53125 C 17.675781 33.371094 17.804688 32.765625 17.445312 32.40625 L 17.242188 32.203125 L 7.734375 32.203125 L 7.734375 30.894531 C 7.734375 29.628906 7.742188 29.585938 7.894531 29.453125 C 8.175781 29.199219 8.957031 28.707031 9.316406 28.554688 C 10.308594 28.109375 11.714844 28 12.804688 28.273438 Z M 19.953125 29.144531 C 19.941406 29.160156 19.847656 29.152344 19.757812 29.128906 L 19.582031 29.082031 L 19.757812 29.039062 C 19.914062 28.996094 20.03125 29.066406 19.953125 29.144531 Z M 28.546875 32.660156 L 28.546875 34.59375 L 26.226562 34.59375 L 26.226562 30.726562 L 28.546875 30.726562 Z M 3.375 33.328125 L 3.375 34.59375 L 1.546875 34.59375 L 1.589844 34.402344 C 1.671875 34.050781 2.03125 33.320312 2.292969 32.96875 C 2.523438 32.652344 3.191406 32.070312 3.324219 32.0625 C 3.355469 32.0625 3.375 32.632812 3.375 33.328125 Z M 3.375 33.328125 "/>
<path style=" stroke:none;fill-rule:nonzero;fill:rgb(0%,0%,0%);fill-opacity:1;" d="M 12.664062 11.945312 C 12.523438 12.085938 12.515625 12.148438 12.515625 14.222656 C 12.515625 16.648438 12.515625 16.664062 13.015625 16.664062 C 13.554688 16.664062 13.570312 16.628906 13.570312 15.644531 L 13.570312 14.765625 L 13.800781 14.765625 C 14.027344 14.765625 14.042969 14.785156 14.414062 15.554688 C 14.863281 16.460938 15.0625 16.734375 15.292969 16.734375 C 15.511719 16.734375 15.890625 16.410156 15.890625 16.222656 C 15.890625 16.144531 15.714844 15.765625 15.503906 15.382812 C 15.292969 15.003906 15.117188 14.667969 15.117188 14.640625 C 15.117188 14.605469 15.203125 14.535156 15.300781 14.484375 C 15.398438 14.429688 15.558594 14.246094 15.660156 14.078125 C 15.8125 13.824219 15.839844 13.675781 15.847656 13.261719 C 15.847656 12.550781 15.660156 12.226562 15.082031 11.980469 C 14.878906 11.890625 14.527344 11.855469 13.808594 11.828125 C 12.867188 11.796875 12.804688 11.804688 12.664062 11.945312 Z M 14.710938 12.9375 C 14.78125 13.027344 14.835938 13.203125 14.835938 13.359375 C 14.835938 13.796875 14.667969 13.9375 14.078125 13.976562 L 13.570312 14.011719 L 13.570312 12.707031 L 14.078125 12.742188 C 14.492188 12.777344 14.605469 12.8125 14.710938 12.9375 Z M 14.710938 12.9375 "/>
<path style=" stroke:none;fill-rule:nonzero;fill:rgb(0%,0%,0%);fill-opacity:1;" d="M 16.664062 11.902344 L 16.488281 11.996094 L 16.46875 14.230469 C 16.453125 15.839844 16.472656 16.496094 16.53125 16.574219 C 16.601562 16.648438 16.890625 16.664062 18.027344 16.648438 L 19.441406 16.628906 L 19.503906 16.433594 C 19.546875 16.3125 19.546875 16.171875 19.503906 16.046875 L 19.441406 15.855469 L 17.472656 15.785156 L 17.453125 15.238281 L 17.429688 14.695312 L 17.945312 14.695312 C 18.546875 14.695312 18.773438 14.582031 18.773438 14.28125 C 18.773438 13.949219 18.589844 13.851562 17.972656 13.851562 L 17.429688 13.851562 L 17.453125 13.304688 L 17.472656 12.761719 L 18.421875 12.742188 C 19.476562 12.71875 19.546875 12.691406 19.546875 12.261719 C 19.546875 11.855469 19.398438 11.8125 18.035156 11.8125 C 17.210938 11.8125 16.785156 11.839844 16.664062 11.902344 Z M 16.664062 11.902344 "/>
<path style=" stroke:none;fill-rule:nonzero;fill:rgb(0%,0%,0%);fill-opacity:1;" d="M 20.25 11.898438 L 20.074219 11.996094 L 20.054688 14.230469 C 20.039062 15.828125 20.058594 16.503906 20.117188 16.566406 C 20.222656 16.691406 20.839844 16.691406 20.945312 16.574219 C 20.988281 16.515625 21.03125 16.03125 21.039062 15.320312 L 21.058594 14.167969 L 21.683594 15.292969 C 22.023438 15.910156 22.351562 16.472656 22.414062 16.539062 C 22.484375 16.628906 22.625 16.664062 22.859375 16.664062 C 23.433594 16.664062 23.414062 16.742188 23.414062 14.28125 C 23.414062 11.820312 23.421875 11.863281 22.902344 11.863281 C 22.367188 11.863281 22.359375 11.875 22.359375 13.210938 L 22.359375 14.378906 L 21.761719 13.261719 C 21.4375 12.640625 21.113281 12.078125 21.039062 12.007812 C 20.867188 11.839844 20.476562 11.785156 20.25 11.898438 Z M 20.25 11.898438 "/>
<path style=" stroke:none;fill-rule:nonzero;fill:rgb(0%,0%,0%);fill-opacity:1;" d="M 23.957031 11.9375 C 23.886719 12.007812 23.835938 12.183594 23.835938 12.324219 C 23.835938 12.675781 24.027344 12.796875 24.589844 12.796875 L 25.03125 12.796875 L 25.03125 14.617188 C 25.03125 16.683594 25.023438 16.664062 25.558594 16.664062 C 26.09375 16.664062 26.085938 16.683594 26.085938 14.617188 L 26.085938 12.796875 L 26.527344 12.796875 C 27.097656 12.796875 27.28125 12.675781 27.28125 12.304688 C 27.28125 11.820312 27.246094 11.8125 25.566406 11.8125 C 24.203125 11.8125 24.0625 11.828125 23.957031 11.9375 Z M 23.957031 11.9375 "/>
<path style=" stroke:none;fill-rule:nonzero;fill:rgb(0%,0%,0%);fill-opacity:1;" d="M 19.300781 32.363281 C 19.175781 32.46875 19.105469 32.617188 19.074219 32.816406 C 19.039062 33.089844 19.0625 33.136719 19.285156 33.363281 C 19.546875 33.625 19.777344 33.671875 20.058594 33.53125 C 20.726562 33.1875 20.511719 32.203125 19.765625 32.203125 C 19.574219 32.203125 19.425781 32.253906 19.300781 32.363281 Z M 19.300781 32.363281 "/>
</g>
</svg>
