<?xml version="1.0" encoding="UTF-8"?>
<svg xmlns="http://www.w3.org/2000/svg" xmlns:xlink="http://www.w3.org/1999/xlink" width="165px" height="165px" viewBox="0 0 165 165" version="1.1">
<g id="surface1">
<path style=" stroke:none;fill-rule:nonzero;fill:rgb(0%,0%,0%);fill-opacity:1;" d="M 17.242188 0.355469 C 15.597656 1.289062 15.46875 1.773438 15.46875 7.316406 L 15.46875 12.535156 L 2.257812 12.730469 L 1.386719 13.632812 L 0.484375 14.5 L 0.386719 21.976562 C 0.324219 26.101562 0.386719 29.808594 0.484375 30.226562 C 0.582031 30.648438 1.0625 31.355469 1.515625 31.773438 C 2.351562 32.546875 2.417969 32.546875 8.894531 32.546875 L 15.46875 32.546875 L 15.46875 139.539062 L 13.472656 140.539062 C 5.929688 144.34375 1.226562 151.433594 0.453125 160.199219 C 0.257812 162.613281 0.257812 162.679688 1.226562 163.742188 L 2.191406 164.839844 L 157.589844 164.839844 L 158.457031 163.9375 L 159.359375 163.066406 L 159.457031 147.984375 L 159.554688 132.933594 L 160.972656 133.03125 C 162.230469 133.160156 162.550781 133.03125 163.390625 132.191406 L 164.355469 131.226562 L 164.355469 121.363281 C 164.355469 115.984375 164.226562 111.179688 164.066406 110.761719 C 163.871094 110.277344 158.652344 106.25 149.5625 99.546875 C 141.734375 93.8125 135.351562 89.042969 135.351562 88.945312 C 135.351562 88.847656 135.769531 88.589844 136.253906 88.363281 C 136.769531 88.140625 137.351562 87.589844 137.542969 87.140625 C 137.832031 86.558594 137.929688 80.242188 137.929688 64.292969 L 137.929688 42.214844 L 137.027344 41.21875 C 136.15625 40.25 135.933594 40.1875 133.484375 40.023438 L 130.839844 39.863281 L 130.839844 32.546875 L 143.023438 32.546875 C 154.042969 32.546875 155.234375 32.484375 155.847656 31.96875 C 157.167969 30.90625 157.265625 30.292969 157.265625 22.429688 L 157.265625 14.824219 L 156.332031 13.792969 L 155.398438 12.730469 L 95.457031 12.632812 L 35.515625 12.566406 L 35.386719 7.25 L 35.289062 1.933594 L 34.386719 1.0625 L 33.515625 0.160156 L 25.683594 0.0976562 C 20.367188 0.03125 17.691406 0.128906 17.242188 0.355469 Z M 28.683594 9.507812 L 28.683594 12.566406 L 21.914062 12.566406 L 21.914062 6.445312 L 28.683594 6.445312 Z M 50.273438 22.558594 L 50.273438 26.101562 L 6.769531 26.101562 L 6.769531 19.011719 L 50.273438 19.011719 Z M 124.394531 22.558594 L 124.394531 26.101562 L 56.71875 26.101562 L 56.71875 22.785156 C 56.71875 20.945312 56.816406 19.335938 56.945312 19.238281 C 57.042969 19.109375 72.285156 19.011719 90.78125 19.011719 L 124.394531 19.011719 Z M 150.820312 22.558594 L 150.820312 26.101562 L 130.839844 26.101562 L 130.839844 22.785156 C 130.839844 20.945312 130.9375 19.335938 131.066406 19.238281 C 131.164062 19.109375 135.675781 19.011719 141.054688 19.011719 L 150.820312 19.011719 Z M 50.273438 36.253906 L 50.273438 39.960938 L 48.339844 39.960938 C 47.277344 39.960938 45.890625 40.152344 45.277344 40.410156 C 43.085938 41.347656 43.152344 40.378906 43.25 64.9375 L 43.34375 87.011719 L 44.246094 87.882812 L 45.117188 88.785156 L 115.695312 89.105469 L 102.09375 99.097656 C 94.585938 104.574219 88.074219 109.472656 87.59375 109.957031 L 86.691406 110.792969 L 86.691406 131.097656 L 87.464844 132.03125 L 88.238281 132.933594 L 84.789062 132.804688 C 82.917969 132.742188 80.375 132.871094 79.179688 133.09375 L 76.988281 133.480469 L 74.574219 131.160156 C 68.386719 125.296875 61.167969 122.429688 52.625 122.429688 C 46.988281 122.394531 41.734375 123.75 37.15625 126.390625 L 35.449219 127.328125 L 35.449219 32.546875 L 50.273438 32.546875 Z M 124.394531 36.253906 L 124.394531 39.960938 L 56.71875 39.960938 L 56.71875 32.546875 L 124.394531 32.546875 Z M 28.683594 95.710938 L 28.683594 158.554688 L 21.914062 158.554688 L 21.914062 32.871094 L 28.683594 32.871094 Z M 131.484375 64.453125 L 131.484375 82.5 L 49.628906 82.5 L 49.628906 46.40625 L 131.484375 46.40625 Z M 139.574219 118.207031 L 153.042969 128.101562 L 153.078125 143.3125 L 153.078125 158.554688 L 137.285156 158.554688 L 137.285156 147.660156 C 137.285156 135.707031 137.253906 135.578125 135.351562 134.640625 C 134.351562 134.125 133.160156 134.0625 125.523438 134.0625 C 117.886719 134.0625 116.691406 134.125 115.695312 134.640625 C 113.792969 135.578125 113.761719 135.707031 113.761719 147.660156 L 113.761719 158.554688 L 110.214844 158.554688 L 110.214844 157.007812 C 110.214844 154.621094 109.085938 150.660156 107.507812 147.4375 C 105.832031 144.019531 103.15625 140.734375 100.128906 138.285156 L 97.9375 136.542969 L 98.035156 132.289062 L 98.128906 128.003906 L 111.664062 118.011719 C 119.109375 112.503906 125.394531 108.085938 125.652344 108.152344 C 125.878906 108.214844 132.160156 112.761719 139.574219 118.207031 Z M 58.683594 129.582031 C 61.648438 130.324219 65.679688 132.191406 67.773438 133.773438 C 68.515625 134.351562 70.351562 136.09375 71.867188 137.671875 C 74.925781 140.863281 75.183594 140.957031 78.34375 139.960938 C 81.019531 139.121094 86.851562 139.1875 89.75 140.089844 C 97.066406 142.410156 102.804688 149.175781 103.640625 156.589844 L 103.867188 158.554688 L 35.449219 158.554688 L 35.449219 154.042969 L 56.6875 154.042969 C 70.964844 154.042969 78.214844 153.914062 78.890625 153.6875 C 81.019531 152.945312 81.597656 150.175781 79.953125 148.53125 L 79.019531 147.597656 L 35.449219 147.597656 L 35.449219 141.601562 C 35.449219 135.800781 35.480469 135.609375 36.191406 134.996094 C 37.480469 133.835938 41.058594 131.582031 42.699219 130.871094 C 47.246094 128.839844 53.691406 128.324219 58.683594 129.582031 Z M 91.460938 133.578125 C 91.394531 133.644531 90.976562 133.609375 90.558594 133.515625 L 89.75 133.289062 L 90.558594 133.09375 C 91.265625 132.902344 91.8125 133.222656 91.460938 133.578125 Z M 130.839844 149.691406 L 130.839844 158.554688 L 120.207031 158.554688 L 120.207031 140.828125 L 130.839844 140.828125 Z M 15.46875 152.753906 L 15.46875 158.554688 L 7.089844 158.554688 L 7.285156 157.683594 C 7.671875 156.074219 9.3125 152.722656 10.507812 151.109375 C 11.570312 149.660156 14.632812 146.984375 15.242188 146.953125 C 15.371094 146.953125 15.46875 149.5625 15.46875 152.753906 Z M 15.46875 152.753906 "/>
<path style=" stroke:none;fill-rule:nonzero;fill:rgb(0%,0%,0%);fill-opacity:1;" d="M 58.039062 54.753906 C 57.394531 55.398438 57.363281 55.6875 57.363281 65.195312 C 57.363281 76.3125 57.363281 76.375 59.652344 76.375 C 62.132812 76.375 62.199219 76.214844 62.199219 71.703125 L 62.199219 67.675781 L 63.261719 67.675781 C 64.292969 67.675781 64.355469 67.773438 66.066406 71.285156 C 68.128906 75.441406 69.03125 76.699219 70.09375 76.699219 C 71.09375 76.699219 72.832031 75.214844 72.832031 74.347656 C 72.832031 73.992188 72.027344 72.25 71.058594 70.511719 C 70.09375 68.769531 69.289062 67.222656 69.289062 67.09375 C 69.289062 66.933594 69.675781 66.613281 70.125 66.386719 C 70.578125 66.128906 71.316406 65.289062 71.769531 64.515625 C 72.476562 63.355469 72.605469 62.679688 72.640625 60.777344 C 72.640625 57.523438 71.769531 56.042969 69.125 54.914062 C 68.191406 54.496094 66.582031 54.332031 63.292969 54.203125 C 58.976562 54.074219 58.683594 54.109375 58.039062 54.753906 Z M 67.417969 59.296875 C 67.742188 59.714844 68 60.519531 68 61.230469 C 68 63.226562 67.226562 63.871094 64.519531 64.066406 L 62.199219 64.226562 L 62.199219 58.234375 L 64.519531 58.394531 C 66.417969 58.554688 66.933594 58.714844 67.417969 59.296875 Z M 67.417969 59.296875 "/>
<path style=" stroke:none;fill-rule:nonzero;fill:rgb(0%,0%,0%);fill-opacity:1;" d="M 76.378906 54.558594 L 75.570312 54.976562 L 75.476562 65.226562 C 75.410156 72.605469 75.507812 75.601562 75.765625 75.957031 C 76.085938 76.3125 77.410156 76.375 82.628906 76.3125 L 89.105469 76.214844 L 89.398438 75.3125 C 89.589844 74.765625 89.589844 74.121094 89.398438 73.539062 L 89.105469 72.671875 L 84.59375 72.507812 L 80.082031 72.347656 L 79.988281 69.835938 L 79.890625 67.351562 L 82.242188 67.351562 C 85.015625 67.351562 86.046875 66.835938 86.046875 65.453125 C 86.046875 63.9375 85.207031 63.484375 82.371094 63.484375 L 79.890625 63.484375 L 79.988281 60.972656 L 80.082031 58.492188 L 84.433594 58.394531 C 89.269531 58.296875 89.589844 58.167969 89.589844 56.203125 C 89.589844 54.332031 88.914062 54.140625 82.660156 54.140625 C 78.890625 54.140625 76.925781 54.269531 76.378906 54.558594 Z M 76.378906 54.558594 "/>
<path style=" stroke:none;fill-rule:nonzero;fill:rgb(0%,0%,0%);fill-opacity:1;" d="M 92.8125 54.527344 L 92.007812 54.976562 L 91.910156 65.226562 C 91.847656 72.542969 91.941406 75.636719 92.199219 75.925781 C 92.683594 76.503906 95.519531 76.503906 96.003906 75.957031 C 96.195312 75.699219 96.390625 73.476562 96.421875 70.222656 L 96.519531 64.9375 L 99.386719 70.09375 C 100.933594 72.929688 102.449219 75.507812 102.738281 75.796875 C 103.0625 76.214844 103.707031 76.375 104.769531 76.375 C 107.410156 76.375 107.316406 76.730469 107.316406 65.453125 C 107.316406 54.171875 107.347656 54.367188 104.960938 54.367188 C 102.511719 54.367188 102.480469 54.429688 102.480469 60.554688 L 102.480469 65.902344 L 99.742188 60.777344 C 98.257812 57.941406 96.777344 55.363281 96.421875 55.042969 C 95.648438 54.269531 93.84375 54.011719 92.8125 54.527344 Z M 92.8125 54.527344 "/>
<path style=" stroke:none;fill-rule:nonzero;fill:rgb(0%,0%,0%);fill-opacity:1;" d="M 109.796875 54.71875 C 109.472656 55.042969 109.25 55.847656 109.25 56.492188 C 109.25 58.105469 110.117188 58.652344 112.695312 58.652344 L 114.726562 58.652344 L 114.726562 67 C 114.726562 76.472656 114.695312 76.375 117.144531 76.375 C 119.59375 76.375 119.5625 76.472656 119.5625 67 L 119.5625 58.652344 L 121.589844 58.652344 C 124.203125 58.652344 125.039062 58.105469 125.039062 56.394531 C 125.039062 54.171875 124.878906 54.140625 117.175781 54.140625 C 110.925781 54.140625 110.28125 54.203125 109.796875 54.71875 Z M 109.796875 54.71875 "/>
<path style=" stroke:none;fill-rule:nonzero;fill:rgb(0%,0%,0%);fill-opacity:1;" d="M 88.460938 148.339844 C 87.882812 148.820312 87.558594 149.5 87.429688 150.402344 C 87.269531 151.65625 87.367188 151.882812 88.398438 152.914062 C 89.589844 154.105469 90.652344 154.332031 91.941406 153.6875 C 95.003906 152.109375 94.003906 147.597656 90.589844 147.597656 C 89.71875 147.597656 89.042969 147.824219 88.460938 148.339844 Z M 88.460938 148.339844 "/>
</g>
</svg>
